<?xml version="1.0" encoding="iso-8859-1"?>
<!-- Generator: Adobe Illustrator 18.1.1, SVG Export Plug-In . SVG Version: 6.00 Build 0)  -->
<svg version="1.1" id="Layer_1" xmlns="http://www.w3.org/2000/svg" xmlns:xlink="http://www.w3.org/1999/xlink" x="0px" y="0px"
	 viewBox="120.945 -2.36 600 600" style="enable-background:new 120.945 -2.36 600 600;" xml:space="preserve">
<ellipse style="opacity:0.7;fill:#FCF5F5;enable-background:new    ;" cx="425.859" cy="295.036" rx="213.969" ry="168.902"/>
<g>
	<path style="fill:#1AC0DE;" d="M251.268,412.155l-0.042-0.028L251.268,412.155z"/>
	<g>
		<path style="fill:#1AC0DE;" d="M447.174,378.259c-6.919,0.394-11.404,8.599-13.757,18.282c-0.68,2.393-1.265,12.665-10.034,25.28
			c-8.504,12.418-27.822,27.37-60.51,31.661c-15.996,2.227-34.844,1.319-53.51-3.122c-18.608-4.434-36.77-12.56-51.117-22.186
			c-29.217-19.512-41.055-41.225-41.283-40.628c0.347-0.608,10.67,21.764,40.805,43.774c14.747,10.84,34.252,20.495,55.017,26.044
			c20.714,5.734,42.425,7.322,61.366,5.426c38.683-3.8,63.639-20.66,74.715-34.976c11.493-14.58,12.308-26.613,12.664-29.406
			C462.208,386.57,453.732,377.821,447.174,378.259z"/>
		<path style="fill:#1AC0DE;" d="M273.643,433.98c13.937,7.518,30.718,13.014,46.169,14.619c21.743,2.619,39.249-2.013,49.109-7.863
			c11.157-6.176,15.085-13.359,16.332-16.052c0.433-0.906,0.753-1.817,0.978-2.712c1.542-6.379-1.295-11.905-4.771-13
			c-4.331-1.999-9.354,0.1-13.485,4.27c-0.219,0.135-0.473,0.354-0.757,0.648c-2.202,1.54-4.718,5.703-8.904,10.323
			c-0.573,0.578-1.165,1.272-1.806,2.055c-6.342,5.859-18.193,13.184-37.502,13.787c-3.574,0.128-7.243-0.149-11.159-0.522
			c-16.278-1.531-34.72-8.436-48.247-17.138c-1.256-0.811-2.488-1.612-3.683-2.409c-14.517-9.866-22.461-19.39-22.391-19.213
			c-0.04-0.207,7.609,10.647,23.565,22.713C261.917,427.082,267.455,430.763,273.643,433.98z"/>
		<path style="fill:#1AC0DE;" d="M269.517,421.236c3.299,0.923,6.64,1.498,9.701,1.435c6.596,0.214,10.549-2.325,12.939-4.967
			c2.376-2.663,3.201-5.447,3.064-6.209c0.319-2.924-2.057-6.644-4.478-7.658c-2.581-1.158-4.261,0.04-4.776,2.316
			c-0.056,1.011-0.529,10.498-10.302,12.159c-4.625,1.225-10.808-0.177-15.821-2.069c-4.736-1.663-8.126-3.872-8.573-4.091
			c0.433,0.261,3.893,2.98,9.056,5.442C263.101,418.948,266.174,420.353,269.517,421.236z"/>
		<g>
			<path style="fill:#1AC0DE;" d="M660.336,500.594c-3.613-0.254-5.897-4.576-7.057-9.647c-0.338-1.253-0.571-6.626-5.063-13.28
				c-4.354-6.544-14.337-14.491-31.384-16.965c-8.338-1.277-18.193-0.937-27.973,1.249c-9.752,2.183-19.295,6.3-26.86,11.229
				c-15.4,9.983-21.734,21.24-21.851,20.926c0.177,0.319,5.729-11.292,21.625-22.575c7.779-5.559,18.037-10.461,28.924-13.214
				c10.859-2.847,22.212-3.523,32.092-2.397c20.178,2.26,33.094,11.246,38.779,18.801c5.901,7.695,6.244,13.99,6.407,15.451
				C668.246,496.361,663.756,500.869,660.336,500.594z"/>
			<path style="fill:#1AC0DE;" d="M570.087,470.254c7.334-3.828,16.138-6.577,24.22-7.311c11.376-1.211,20.488,1.33,25.595,4.457
				c5.782,3.306,7.786,7.085,8.415,8.499c0.221,0.475,0.382,0.955,0.492,1.423c0.76,3.346-0.759,6.209-2.584,6.756
				c-2.276,1.016-4.885-0.121-7.013-2.327c-0.116-0.07-0.242-0.186-0.394-0.342c-1.137-0.822-2.421-3.012-4.578-5.459
				c-0.296-0.303-0.599-0.671-0.927-1.081c-3.269-3.106-9.41-7.017-19.488-7.471c-1.866-0.091-3.786,0.028-5.836,0.196
				c-8.511,0.683-18.195,4.156-25.32,8.606c-0.664,0.417-1.314,0.825-1.943,1.232c-7.651,5.051-11.87,9.969-11.831,9.876
				c-0.023,0.109,4.049-5.505,12.471-11.698C563.913,473.772,566.832,471.894,570.087,470.254z"/>
			<path style="fill:#1AC0DE;" d="M567.839,476.882c1.731-0.459,3.481-0.734,5.079-0.683c3.446-0.065,5.496,1.291,6.726,2.686
				c1.218,1.409,1.628,2.866,1.556,3.264c0.144,1.528-1.123,3.455-2.395,3.97c-1.356,0.585-2.225-0.049-2.477-1.246
				c-0.026-0.529-0.203-5.484-5.298-6.421c-2.404-0.673-5.647,0.014-8.275,0.967c-2.488,0.832-4.275,1.966-4.51,2.078
				c0.226-0.137,2.055-1.531,4.767-2.782C564.474,478.033,566.089,477.32,567.839,476.882z"/>
		</g>
		<g>
			<path style="fill:#1AC0DE;" d="M212.105,387.797c-15.299-26.65-21.953-57.829-20.087-88.407
				c1.696-31.049,12.415-63.514,32.276-92.333c19.807-28.833,48.356-53.976,82.312-71.866
				c33.833-17.988,72.902-28.782,111.627-31.046c45.446-2.891,90.315,5.391,127.584,22.144c-20.518-5.799-41.817-7.784-60.823-6.535
				c-28.542,1.899-50.686,10.831-64.464,20.024c-27.44,19.213-28.67,35.14-29.653,34.695c0.878,0.557,3.872-15.826,32.733-33.562
				c14.405-8.441,36.544-16.14,63.625-16.816c26.895-0.985,57.452,5.608,83.398,18.645c16.089,7.914,30.364,18.153,42.45,29.38
				c31.454,31.757,47.187,69.405,49.831,104.233c1.75,27.03-1.083,44.68-2.383,50.069c-0.797,3.306-2.525,11.108-3.534,14.142
				c-9.724,29.173-32.805,66.33-54.807,87.512c-23.866,22.983-33.271,26.706-43.317,32.707
				c-34.464,20.59-78.065,31.095-95.538,34.389c-38.855,7.32-45.81,5.778-46.057,7.346c-0.366,2.337,14.647,1.617,66.456-8.145
				c20.455-3.856,64.553-15.733,92.645-34.466c6.705-4.876,29.898-15.199,55.865-44.207c15.449-17.254,14.2-14.335,25.637-31.824
				c11.497-17.408,21.061-44.901,24.29-68.427c6.519-46.541-7.232-103.69-53.626-149.91c-22.783-22.953-53.211-42.735-89.017-55.62
				c-35.752-13.089-76.472-18.883-117.442-16.462c-40.978,2.509-82.2,13.864-117.724,32.903
				c-35.529,18.999-65.375,45.428-85.639,75.738c-20.569,30.198-31.097,64.173-32.346,96.368
				c-1.389,31.689,6.125,63.849,22.508,91.105c15.97,27.281,39.883,47.757,62.484,60.445c22.724,12.944,44.048,18.685,59.998,21.189
				c32.381,4.471,45.558-0.254,45.814,0.294c-0.2-0.545-14.104,3.846-46.513-1.417c-15.991-2.849-36.971-9.114-59.01-22.249
				C249.756,434.884,226.999,414.464,212.105,387.797z"/>
		</g>
	</g>
</g>
<path style="fill:#FFFFFF;" d="M219.381,402.263c4.692-6.954,0.876-17.729,0.876-17.729s-11.411,0.508-16.103,7.467
	c-4.69,6.954-0.876,17.727-0.876,17.727S214.691,409.217,219.381,402.263z"/>
<path style="fill:#006A6E;" d="M240.973,396.275c12.063-17.897,2.258-45.605,2.258-45.605s-29.364,1.305-41.43,19.202
	c-12.061,17.897-2.258,45.602-2.258,45.602S228.907,414.173,240.973,396.275z"/>
<path style="fill:#1AC0DE;" d="M231.381,398.142c8.89-13.191,1.663-33.616,1.663-33.616s-21.646,0.962-30.536,14.153
	c-8.893,13.191-1.663,33.614-1.663,33.614S222.489,411.33,231.381,398.142z"/>
<path style="fill:#63C9D5;" d="M222.118,402.675c6.144-9.109,1.151-23.218,1.151-23.218s-14.95,0.666-21.089,9.776
	c-6.144,9.112-1.151,23.216-1.151,23.216S215.975,411.785,222.118,402.675z"/>
<path style="fill:#AED691;" d="M211.331,406.575c2.584-3.832,0.482-9.769,0.482-9.769s-6.29,0.28-8.874,4.117
	c-2.584,3.832-0.485,9.766-0.485,9.766S208.748,410.41,211.331,406.575z"/>
<path style="fill:#006A6E;" d="M154.551,402.372c-3.078-0.37-5.98,2.693-5.98,2.693s2.087,3.669,5.165,4.044
	c3.08,0.373,5.983-2.691,5.983-2.691S157.631,402.747,154.551,402.372z"/>
<path style="fill:#006A6E;" d="M214.477,514.771c0.366-3.078-2.705-5.978-2.705-5.978s-3.667,2.094-4.035,5.174
	c-0.368,3.078,2.702,5.978,2.702,5.978S214.106,517.851,214.477,514.771z"/>
<path style="fill:#006A6E;" d="M193.129,502.034c-0.981-2.942-4.997-4.249-4.997-4.249s-2.423,3.455-1.442,6.395
	c0.981,2.942,4.995,4.254,4.995,4.254S194.11,504.977,193.129,502.034z"/>
<path style="fill:#006A6E;" d="M154.113,466.214c0.787-3.001-1.859-6.293-1.859-6.293s-3.919,1.575-4.706,4.573
	c-0.785,2.998,1.861,6.29,1.861,6.29S153.325,469.213,154.113,466.214z"/>
<path style="fill:#006A6E;" d="M296.314,505.005c2.339,2.034,6.46,1.123,6.46,1.123s0.328-4.212-2.013-6.248
	c-2.341-2.027-6.463-1.114-6.463-1.114S293.972,502.975,296.314,505.005z"/>
<path style="fill:#006A6E;" d="M278.831,471.223c1.733-2.572,0.324-6.551,0.324-6.551s-4.219,0.189-5.953,2.761
	c-1.736,2.567-0.324,6.549-0.324,6.549S277.096,473.798,278.831,471.223z"/>
<path style="fill:#006A6E;" d="M161.254,453.184c-7.6,10.533-2.232,27.391-2.232,27.391s17.69-0.226,25.287-10.759
	c7.6-10.535,2.232-27.391,2.232-27.391S168.853,442.649,161.254,453.184z"/>
<path style="fill:#1AC0DE;" d="M166.523,451.514c-5.75,7.977-1.687,20.737-1.687,20.737s13.389-0.17,19.141-8.147
	c5.75-7.975,1.689-20.73,1.689-20.73S172.276,443.541,166.523,451.514z"/>
<path style="fill:#AED691;" d="M176.488,448.438c-2.477,3.436-0.727,8.932-0.727,8.932s5.768-0.075,8.243-3.511
	c2.479-3.436,0.727-8.93,0.727-8.93S178.967,445.007,176.488,448.438z"/>
<path style="fill:#006A6E;" d="M147.755,444.62c-4.853,2.887-5.622,10.537-5.622,10.537s7.092,2.963,11.942,0.077
	c4.851-2.889,5.619-10.537,5.619-10.537S152.603,441.729,147.755,444.62z"/>
<path style="fill:#1AC0DE;" d="M150.145,444.865c-3.669,2.185-4.254,7.979-4.254,7.979s5.37,2.241,9.042,0.056
	c3.672-2.188,4.254-7.977,4.254-7.977S153.815,442.677,150.145,444.865z"/>
<path style="fill:#AED691;" d="M154.651,445.358c-1.582,0.944-1.834,3.436-1.834,3.436s2.313,0.967,3.893,0.026
	c1.582-0.941,1.836-3.436,1.836-3.436S156.233,444.417,154.651,445.358z"/>
<path style="fill:#006A6E;" d="M217.466,471.135c5.885,2.663,13.573-1.626,13.573-1.626s-1.859-8.594-7.749-11.262
	c-5.887-2.661-13.573,1.624-13.573,1.624S211.578,468.472,217.466,471.135z"/>
<path style="fill:#1AC0DE;" d="M216.128,468.73c4.457,2.013,10.277-1.23,10.277-1.23s-1.41-6.507-5.866-8.522
	c-4.457-2.015-10.274,1.228-10.274,1.228S211.674,466.715,216.128,468.73z"/>
<path style="fill:#AED691;" d="M213.645,464.178c1.92,0.867,4.424-0.531,4.424-0.531s-0.606-2.803-2.525-3.672
	c-1.92-0.869-4.427,0.531-4.427,0.531S211.725,463.309,213.645,464.178z"/>
<path style="fill:#006A6E;" d="M171.53,489.605c-0.123,6.46,6.842,11.835,6.842,11.835s7.176-5.098,7.297-11.558
	c0.126-6.46-6.842-11.835-6.842-11.835S171.656,483.149,171.53,489.605z"/>
<path style="fill:#1AC0DE;" d="M173.217,487.431c-0.096,4.89,5.179,8.958,5.179,8.958s5.426-3.86,5.521-8.751
	s-5.179-8.958-5.179-8.958S173.31,482.544,173.217,487.431z"/>
<path style="fill:#AED691;" d="M176.42,483.354c-0.044,2.104,2.23,3.856,2.23,3.856s2.339-1.661,2.379-3.767
	c0.044-2.106-2.23-3.858-2.23-3.858S176.46,481.246,176.42,483.354z"/>
<path style="fill:#006A6E;" d="M255.636,488.727c11.069-6.796,12.606-24.42,12.606-24.42s-16.413-6.6-27.482,0.196
	c-11.073,6.798-12.609,24.418-12.609,24.418S244.565,495.523,255.636,488.727z"/>
<path style="fill:#1AC0DE;" d="M250.129,488.237c8.38-5.144,9.543-18.487,9.543-18.487s-12.422-4.997-20.802,0.149
	c-8.38,5.144-9.54,18.484-9.54,18.484S241.751,493.382,250.129,488.237z"/>
<path style="fill:#AED691;" d="M239.75,487.238c3.609-2.213,4.112-7.958,4.112-7.958s-5.351-2.155-8.96,0.061
	c-3.611,2.218-4.112,7.961-4.112,7.961S236.141,489.458,239.75,487.238z"/>
<path style="fill:#006A6E;" d="M217.536,513.182c4.392,9.757,17.557,13.342,17.557,13.342s6.043-12.234,1.649-21.988
	c-4.394-9.757-17.555-13.342-17.555-13.342S213.144,503.425,217.536,513.182z"/>
<path style="fill:#1AC0DE;" d="M218.265,508.846c3.325,7.385,13.289,10.102,13.289,10.102s4.573-9.261,1.249-16.646
	c-3.322-7.385-13.289-10.099-13.289-10.099S214.94,501.461,218.265,508.846z"/>
<path style="fill:#AED691;" d="M219.695,500.683c1.433,3.182,5.727,4.35,5.727,4.35s1.969-3.986,0.536-7.166
	c-1.433-3.182-5.722-4.352-5.722-4.352S218.262,497.503,219.695,500.683z"/>
<path style="fill:#006A6E;" d="M247.743,516.693c7.033,6.565,19.922,4.194,19.922,4.194s1.484-13.023-5.547-19.589
	c-7.038-6.565-19.926-4.194-19.926-4.194S240.707,510.125,247.743,516.693z"/>
<path style="fill:#1AC0DE;" d="M247.007,512.665c5.323,4.972,15.08,3.173,15.08,3.173s1.125-9.855-4.201-14.826
	c-5.323-4.972-15.08-3.175-15.08-3.175S241.683,507.693,247.007,512.665z"/>
<path style="fill:#AED691;" d="M245.677,505.054c2.292,2.141,6.495,1.368,6.495,1.368s0.482-4.245-1.806-6.388
	c-2.297-2.141-6.5-1.368-6.5-1.368S243.382,502.91,245.677,505.054z"/>
<path style="fill:#006A6E;" d="M303.909,493.68c9.557-5.114,11.707-19.721,11.707-19.721s-13.347-6.314-22.904-1.202
	c-9.559,5.118-11.709,19.724-11.709,19.724S294.35,498.791,303.909,493.68z"/>
<path style="fill:#1AC0DE;" d="M299.345,492.997c7.232-3.87,8.862-14.927,8.862-14.927s-10.102-4.776-17.336-0.906
	c-7.234,3.872-8.865,14.924-8.865,14.924S292.108,496.871,299.345,492.997z"/>
<path style="fill:#AED691;" d="M290.746,491.653c3.115-1.666,3.818-6.43,3.818-6.43s-4.352-2.057-7.467-0.389
	c-3.117,1.668-3.818,6.428-3.818,6.428S287.628,493.323,290.746,491.653z"/>
<path style="fill:#006A6E;" d="M275.872,512.905c5.927,4.976,16.173,2.521,16.173,2.521s0.638-10.516-5.289-15.49
	c-5.925-4.974-16.173-2.521-16.173-2.521S269.946,507.931,275.872,512.905z"/>
<path style="fill:#1AC0DE;" d="M275.113,509.701c4.487,3.767,12.243,1.908,12.243,1.908s0.482-7.958-4.003-11.728
	c-4.485-3.763-12.245-1.906-12.245-1.906S270.626,505.937,275.113,509.701z"/>
<path style="fill:#AED691;" d="M273.72,503.649c1.931,1.619,5.272,0.825,5.272,0.825s0.21-3.432-1.722-5.056
	c-1.934-1.619-5.275-0.82-5.275-0.82S271.786,502.025,273.72,503.649z"/>
<path style="fill:#006A6E;" d="M275.176,490.63c3.874-4.517,2.073-12.415,2.073-12.415s-8.08-0.58-11.954,3.935
	c-3.872,4.515-2.073,12.413-2.073,12.413S271.299,495.141,275.176,490.63z"/>
<path style="fill:#1AC0DE;" d="M272.704,491.187c2.933-3.418,1.575-9.398,1.575-9.398s-6.113-0.438-9.051,2.977
	c-2.931,3.418-1.57,9.398-1.57,9.398S269.773,494.602,272.704,491.187z"/>
<path style="fill:#AED691;" d="M268.04,492.203c1.263-1.472,0.678-4.044,0.678-4.044s-2.635-0.191-3.898,1.281
	c-1.263,1.472-0.676,4.047-0.676,4.047S266.777,493.675,268.04,492.203z"/>
<path style="fill:#006A6E;" d="M188.202,486.392c2.528,13.836,18.566,22.501,18.566,22.501s11.931-13.776,9.403-27.614
	c-2.53-13.841-18.566-22.505-18.566-22.505S185.669,472.551,188.202,486.392z"/>
<path style="fill:#1AC0DE;" d="M190.583,481.071c1.915,10.477,14.051,17.035,14.051,17.035s9.03-10.43,7.117-20.902
	c-1.915-10.479-14.051-17.033-14.051-17.033S188.665,470.597,190.583,481.071z"/>
<path style="fill:#AED691;" d="M195.14,471.074c0.827,4.51,6.055,7.334,6.055,7.334s3.888-4.489,3.064-9.002
	c-0.825-4.51-6.053-7.334-6.053-7.334S194.315,466.562,195.14,471.074z"/>
<path style="fill:#006A6E;" d="M230.745,458.696c9.522,5.435,23.19-0.575,23.19-0.575s-1.771-14.824-11.292-20.262
	c-9.519-5.435-23.19,0.578-23.19,0.578S221.226,453.261,230.745,458.696z"/>
<path style="fill:#1AC0DE;" d="M228.877,454.421c7.206,4.117,17.55-0.438,17.55-0.438s-1.337-11.218-8.546-15.337
	c-7.206-4.112-17.552,0.438-17.552,0.438S221.669,450.307,228.877,454.421z"/>
<path style="fill:#AED691;" d="M225.405,446.335c3.101,1.773,7.558-0.189,7.558-0.189s-0.575-4.834-3.679-6.605
	c-3.106-1.773-7.562,0.189-7.562,0.189S222.298,444.559,225.405,446.335z"/>
<path style="fill:#006A6E;" d="M224.846,432.769c8.958,1.363,17.713-7.332,17.713-7.332s-5.768-10.913-14.724-12.278
	c-8.96-1.365-17.713,7.329-17.713,7.329S215.888,431.401,224.846,432.769z"/>
<path style="fill:#1AC0DE;" d="M222.132,430.024c6.782,1.034,13.41-5.549,13.41-5.549s-4.368-8.259-11.148-9.289
	c-6.782-1.034-13.408,5.547-13.408,5.547S215.353,428.992,222.132,430.024z"/>
<path style="fill:#AED691;" d="M217.053,424.819c2.921,0.443,5.775-2.388,5.775-2.388s-1.882-3.557-4.802-4.005
	c-2.922-0.443-5.775,2.388-5.775,2.388S214.132,424.37,217.053,424.819z"/>
<path style="fill:#006A6E;" d="M166.773,389.68c-5.384-3.676-13.773-0.764-13.773-0.764s0.342,8.874,5.727,12.55
	c5.384,3.676,13.771,0.762,13.771,0.762S172.157,393.356,166.773,389.68z"/>
<path style="fill:#1AC0DE;" d="M167.679,392.301c-4.075-2.782-10.426-0.578-10.426-0.578s0.259,6.717,4.336,9.501
	c4.077,2.779,10.423,0.575,10.423,0.575S171.754,395.087,167.679,392.301z"/>
<path style="fill:#AED691;" d="M169.349,397.261c-1.757-1.198-4.492-0.247-4.492-0.247s0.112,2.891,1.868,4.091
	c1.757,1.2,4.492,0.249,4.492,0.249S171.106,398.463,169.349,397.261z"/>
<path style="fill:#006A6E;" d="M190.909,392.434c-4.506-6.16-14.899-6.223-14.899-6.223s-3.087,9.927,1.416,16.085
	c4.508,6.162,14.901,6.22,14.901,6.22S195.417,398.596,190.909,392.434z"/>
<path style="fill:#1AC0DE;" d="M190.886,395.681c-3.411-4.662-11.278-4.708-11.278-4.708s-2.337,7.513,1.074,12.173
	c3.413,4.664,11.281,4.711,11.281,4.711S194.296,400.345,190.886,395.681z"/>
<path style="fill:#AED691;" d="M190.792,401.811c-1.468-2.011-4.858-2.029-4.858-2.029s-1.009,3.236,0.461,5.242
	c1.47,2.011,4.86,2.029,4.86,2.029S192.263,403.817,190.792,401.811z"/>
<path style="fill:#006A6E;" d="M190.392,441.188c1.58,11.132,15.041,18.426,15.041,18.426s10.901-10.747,9.324-21.881
	c-1.58-11.129-15.041-18.426-15.041-18.426S188.812,430.059,190.392,441.188z"/>
<path style="fill:#1AC0DE;" d="M192.682,437.647c1.195,8.427,11.383,13.946,11.383,13.946s8.252-8.135,7.054-16.557
	c-1.193-8.427-11.383-13.948-11.383-13.948S191.484,429.223,192.682,437.647z"/>
<path style="fill:#AED691;" d="M197.199,430.814c0.515,3.627,4.904,6.006,4.904,6.006s3.553-3.506,3.04-7.134
	c-0.515-3.627-4.904-6.006-4.904-6.006S196.684,427.182,197.199,430.814z"/>
<path style="fill:#006A6E;" d="M162.577,408.66c-14.887,5.605-20.816,26.447-20.816,26.447s18.207,11.742,33.094,6.137
	c14.887-5.612,20.816-26.447,20.816-26.447S177.464,403.048,162.577,408.66z"/>
<g>
	<path style="fill:#06B4DF;" d="M169.086,410.524c-11.269,4.242-15.756,20.017-15.756,20.017s13.78,8.89,25.047,4.646
		c11.269-4.245,15.756-20.022,15.756-20.022S180.353,406.279,169.086,410.524z"/>
</g>
<path style="fill:#AED691;" d="M181.336,414.131c-4.853,1.827-6.787,8.622-6.787,8.622s5.936,3.828,10.789,1.999
	c4.855-1.829,6.789-8.622,6.789-8.622S186.191,412.299,181.336,414.131z"/>
<path style="fill:#006A6E;" d="M243.489,355.975c5.282-15.143,11.579-40.1-2.709-45.929c-0.944-0.48-1.99-0.839-3.138-1.053
	c-1.02-0.28-2.087-0.089-3.25-0.294l0.126,0.077c-6.635,0.291-11.924,5.766-11.924,12.471c0,3.562,1.493,6.773,3.884,9.051
	l-8.208,16.93l12.988-14.027l-0.177-0.119c1.256,0.424,2.6,0.657,4.003,0.657c2.32,0,4.273-0.592,6.141-1.435
	c2.593-1.167,2.67,0.997,2.67,1.715c0,0.452-0.07,0.233-0.091,1.174c-0.016,0.827-0.328,2.542-0.508,3.35
	c-1.209,5.456-5.116,11.115-7.364,13.354l7.795,4.159"/>
<line style="fill:none;" x1="235.507" y1="310.117" x2="228.131" y2="287.879"/>
<line style="fill:none;" x1="236.139" y1="310.298" x2="236.276" y2="294.463"/>
<line style="fill:none;" x1="234.517" y1="309.933" x2="225.988" y2="300.385"/>
<line style="fill:none;" x1="237.404" y1="309.937" x2="244.209" y2="298.778"/>
<line style="fill:none;" x1="233.795" y1="309.844" x2="223.663" y2="305.385"/>
<circle style="fill:#FAFAF8;" cx="227.952" cy="324.68" r="2.015"/>
<circle style="fill:#AED691;" cx="227.952" cy="324.68" r="2.015"/>
<circle style="fill:#006A6E;" cx="223.255" cy="305.196" r="1.223"/>
<g>
	<path style="fill:#006A6E;" d="M244.12,297.552c-0.676,0-1.223,0.55-1.223,1.225c0,0.294,0.119,0.554,0.291,0.767l-6.188,10.148
		l0.801,0.487l6.22-10.202c0.035,0.005,0.061,0.019,0.096,0.019c0.676,0,1.223-0.545,1.223-1.218
		C245.346,298.102,244.796,297.552,244.12,297.552z M237.571,294.132c0-0.676-0.548-1.223-1.225-1.223
		c-0.673,0-1.221,0.547-1.221,1.223c0,0.475,0.28,0.876,0.676,1.079l-0.121,13.932l-6.784-20.448
		c0.289-0.273,0.468-0.657,0.468-1.083c0-0.829-0.673-1.5-1.503-1.5s-1.5,0.671-1.5,1.5c0,0.827,0.671,1.5,1.5,1.5
		c0.061,0,0.119-0.012,0.177-0.016l6.803,20.499l-7.923-8.872c0.089-0.172,0.154-0.356,0.154-0.564c0-0.673-0.548-1.223-1.223-1.223
		s-1.223,0.55-1.223,1.223c0,0.676,0.547,1.223,1.223,1.223c0.121,0,0.231-0.037,0.34-0.068l6.873,7.693l-9.207-4.051l-0.377,0.86
		l10.132,4.459l0.191-0.44l0.368,0.41l0.687-0.613l0.21,0.629l0.608-0.2v0.233l0.937,0.007l0.133-15.025
		C237.222,295.111,237.571,294.668,237.571,294.132z"/>
</g>
<g>
	<g>
		<path style="fill:#006A6E;" d="M267.697,235.313c-0.895-4.473-0.629-5.997-10.831-5.997h-6.714
			c-0.268,1.612-0.445,4.119-0.445,8.504v8.862h4.208c7.339,0,8.052-1.165,8.86-4.387c0-0.089,1.074-0.268,1.074,0
			c-0.354,1.163-0.534,4.296-0.534,6.176c0,0.895,0,3.758,0.177,4.387c0.091,0.356-1.076,0.356-1.076,0
			c-0.536-2.777-1.253-4.117-8.499-4.117h-4.208v9.664c0,8.774,0.715,10.023,7.159,10.563c0.179,0,0.356,1.072,0,1.072
			c-2.057-0.268-6.891-0.45-9.666-0.45c-3.76,0-7.43,0.093-10.204,0.45c-0.354,0-0.177-1.072,0-1.072
			c5.193-0.629,6.265-1.971,6.265-10.563v-20.227c0-8.771-0.715-9.848-7.516-10.563c-0.089-0.091-0.268-1.165,0.089-1.165
			c4.834,0.45,12.709,0.538,19.332,0.538c4.741,0,8.949-0.268,11.365-0.268c0.983,0,1.344,0.091,1.612,1.163
			c0.268,1.521,0.356,5.64,0.627,7.427C268.86,235.493,267.784,235.493,267.697,235.313z"/>
		<path style="fill:#006A6E;" d="M299.564,270.935c-13.156,0-23.27-10.381-23.27-21.928c0-12.084,10.381-23.36,24.434-23.36
			c13.245,0,23.267,10.472,23.267,22.018C323.998,259.657,313.708,270.935,299.564,270.935z M299.298,227.795
			c-9.487,0-16.378,6.085-16.378,18.349c0,14.945,9.305,22.643,18.167,22.643c9.487,0,16.38-6.088,16.38-18.258
			C317.468,235.581,308.158,227.795,299.298,227.795z"/>
		<path style="fill:#006A6E;" d="M373.242,237.638v16.828c0,8.951-6.444,16.469-17.993,16.469c-9.845,0-18.347-6.358-18.347-16.916
			v-15.751c0-8.771-0.983-9.939-6.889-10.652c-0.179,0-0.361-1.165,0-1.074c2.775,0.447,6.98,0.447,10.829,0.447
			c2.775,0,7.253-0.179,9.307-0.447c0.359-0.091,0.273,1.074,0,1.074c-6.174,0.534-6.798,2.33-6.798,10.652v14.23
			c0,10.742,6.798,15.486,13.69,15.486c8.953,0,13.606-5.014,13.606-14.412v-15.935c0-7.961-0.895-9.307-6.803-10.023
			c-0.27,0-0.359-1.165,0-1.074c2.775,0.447,4.746,0.447,8.592,0.447c2.686,0,5.64-0.179,7.611-0.447
			c0.447-0.091,0.179,1.074,0.091,1.074C373.871,228.152,373.242,230.12,373.242,237.638z"/>
		<path style="fill:#006A6E;" d="M431.068,238.179v20.227c0,3.313,0.179,9.398,0.54,12.261c0,0.177-0.804,0.177-1.165-0.089
			l-32.936-34.462v22.286c0,7.427,0.715,10.023,6.98,10.563c0.089,0,0.268,1.072-0.089,1.072c-2.057-0.268-4.473-0.45-7.159-0.45
			c-3.846,0-6.623,0.093-9.398,0.45c-0.27,0-0.179-1.072,0-1.072c5.997-0.629,6.889-2.689,6.889-10.563v-23.004
			c0-3.131-5.549-7.427-8.681-7.786c-0.182-0.091-0.359-1.165,0-1.165c2.772,0.45,7.698,0.538,11.455,0.538l30.701,32.761v-21.569
			c0-7.965-0.897-9.939-6.805-10.563c-0.263-0.091-0.354-1.165,0-1.165c2.686,0.45,4.834,0.538,8.685,0.538
			c2.77,0,5.817-0.268,7.781-0.538c0.45,0,0.182,1.074,0.093,1.165C431.7,228.061,431.068,230.752,431.068,238.179z"/>
		<path style="fill:#006A6E;" d="M485.221,230.84c0,1.072,0.096,3.308,0.184,4.205c0,0.177-1.079,0.089-1.079,0
			c-0.534-3.043-2.863-5.279-10.025-5.279h-6.085v28.64c0,8.233,0.631,10.023,6.896,10.563c0.175,0,0.268,1.072-0.091,1.072
			c-2.062-0.268-6.53-0.45-9.312-0.45c-3.753,0-8.049,0.093-10.735,0.45c-0.45,0-0.266-1.072-0.091-1.072
			c5.997-0.629,6.894-1.88,6.894-10.563v-28.64h-6.356c-6.894,0-9.575,2.057-10.386,5.279c0,0.089-1.069,0.177-1.069,0
			c0.268-1.433,0.445-4.925,0.445-6.805c0-0.715,0-1.969-0.356-3.49c-0.089-0.177,1.076-0.177,1.076,0
			c0.443,2.239,0.536,2.507,10.29,2.507h18.88c9.671,0,9.936-0.179,10.475-2.507c0-0.177,1.079-0.177,1.079,0
			C485.494,226.183,485.221,228.599,485.221,230.84z"/>
		<path style="fill:#006A6E;" d="M524.524,269.591c-3.76,0-8.413,0.093-11.194,0.45c-0.354,0-0.168-1.072,0-1.072
			c3.224-0.361,5.018-0.182,5.018-2.062c0-2.057-0.986-5.188-2.239-8.501l-1.701-4.92h-14.407l-2.062,4.92
			c-1.705,3.94-2.691,6.623-2.691,8.413c0,1.61,1.705,1.88,4.753,2.148c0.263,0,0.356,1.072,0,1.072
			c-1.976-0.268-4.753-0.45-7.525-0.45c-3.763,0-4.387,0.093-7.248,0.45c-0.354,0-0.175-1.072,0-1.072
			c4.473-0.361,6.803-2.954,10.202-10.563l14.412-32.488c0.091-0.27,0.629-0.27,0.713,0l12.443,32.488
			c2.507,6.712,3.853,10.023,10.293,10.563c0.179,0,0.356,1.072,0,1.072C531.231,269.773,527.383,269.591,524.524,269.591z
			 M507.878,235.313l-7.073,16.11h12.886L507.878,235.313z"/>
		<path style="fill:#006A6E;" d="M559.076,270.04c-1.969-0.268-6.535-0.45-9.214-0.45c-3.849,0-8.056,0.093-10.829,0.45
			c-0.447,0-0.184-1.072-0.091-1.072c5.994-0.629,6.891-1.88,6.891-10.563v-20.227c0-8.771-0.897-9.939-6.891-10.563
			c-0.093-0.091-0.356-1.165,0.091-1.165c2.772,0.45,6.98,0.538,10.829,0.538c2.679,0,7.245-0.268,9.214-0.538
			c0.45,0,0.182,1.074,0.091,1.165c-6.265,0.445-6.891,2.33-6.891,10.563v20.227c0,8.233,0.627,10.023,6.891,10.563
			C559.258,268.969,559.526,270.04,559.076,270.04z"/>
		<path style="fill:#006A6E;" d="M613.229,238.179v20.227c0,3.313,0.184,9.398,0.534,12.261c0,0.177-0.799,0.177-1.158-0.089
			l-32.936-34.462v22.286c0,7.427,0.711,10.023,6.978,10.563c0.091,0,0.261,1.072-0.082,1.072c-2.064-0.268-4.485-0.45-7.169-0.45
			c-3.849,0-6.616,0.093-9.396,0.45c-0.268,0-0.175-1.072,0-1.072c5.997-0.629,6.894-2.689,6.894-10.563v-23.004
			c0-3.131-5.552-7.427-8.678-7.786c-0.182-0.091-0.359-1.165,0-1.165c2.77,0.45,7.693,0.538,11.453,0.538l30.697,32.759v-21.566
			c0-7.965-0.89-9.939-6.794-10.563c-0.28-0.091-0.361-1.165,0-1.165c2.675,0.45,4.827,0.538,8.671,0.538
			c2.779,0,5.817-0.268,7.791-0.538c0.447,0,0.182,1.074,0.089,1.165C613.853,228.061,613.229,230.752,613.229,238.179z"/>
		<path style="fill:#006A6E;" d="M327.134,332.182c-13.156,0-23.27-10.379-23.27-21.928c0-12.084,10.381-23.36,24.432-23.36
			c13.247,0,23.272,10.475,23.272,22.021C351.571,320.903,341.278,332.182,327.134,332.182z M326.868,289.042
			c-9.487,0-16.38,6.085-16.38,18.347c0,14.95,9.307,22.652,18.17,22.652c9.487,0,16.38-6.09,16.38-18.263
			C345.04,296.828,335.728,289.042,326.868,289.042z"/>
		<path style="fill:#006A6E;" d="M390.78,296.56c-0.895-4.471-0.627-5.999-10.831-5.999h-6.712c-0.27,1.612-0.45,4.124-0.45,8.501
			v8.86h4.208c7.336,0,8.052-1.158,8.86-4.38c0-0.091,1.072-0.27,1.072,0c-0.354,1.163-0.531,4.294-0.531,6.174
			c0,0.895,0,3.753,0.177,4.387c0.091,0.354-1.074,0.354-1.074,0c-0.54-2.772-1.256-4.121-8.501-4.121h-4.208v9.668
			c0,8.774,0.718,10.025,7.162,10.561c0.179,0,0.359,1.072,0,1.072c-2.06-0.263-6.891-0.45-9.666-0.45
			c-3.758,0-7.427,0.093-10.204,0.45c-0.356,0-0.177-1.072,0-1.072c5.193-0.629,6.267-1.973,6.267-10.561v-20.229
			c0-8.772-0.715-9.848-7.52-10.561c-0.089-0.089-0.268-1.163,0.091-1.163c4.834,0.45,12.711,0.536,19.33,0.536
			c4.743,0,8.956-0.27,11.367-0.27c0.988,0,1.347,0.091,1.612,1.167c0.268,1.517,0.356,5.636,0.627,7.425
			C391.943,296.742,390.869,296.742,390.78,296.56z"/>
		<path style="fill:#006A6E;" d="M464.99,289.578c-1.081-0.266-1.885-0.352-3.054-0.352c-10.733,0-18.694,13.51-18.694,28.73v1.698
			c0,8.324,0.62,10.025,6.882,10.561c0.186,0,0.359,1.163,0,1.072c-2.062-0.263-6.621-0.45-9.305-0.45
			c-3.846,0-8.054,0.093-10.829,0.45c-0.445,0.091-0.175-1.072-0.091-1.072c5.997-0.629,6.894-1.887,6.894-10.561v-1.698
			c0-16.562-8.86-28.644-19.064-28.644c-0.892,0-1.61,0.091-2.414,0.266c-0.089,0-0.361-1.069,0-1.069
			c2.146-0.806,4.382-1.253,6.442-1.253c9.755,0,17.811,7.965,20.227,18.344c3.856-11.542,10.833-17.899,18.708-17.899
			c1.433,0,2.954,0.266,4.392,0.806C465.428,288.506,465.167,289.578,464.99,289.578z"/>
		<path style="fill:#006A6E;" d="M490.319,332.182c-13.154,0-23.265-10.379-23.265-21.928c0-12.084,10.386-23.36,24.432-23.36
			c13.242,0,23.274,10.475,23.274,22.021C514.76,320.903,504.462,332.182,490.319,332.182z M490.053,289.042
			c-9.489,0-16.378,6.085-16.378,18.347c0,14.95,9.312,22.652,18.174,22.652c9.487,0,16.376-6.09,16.376-18.263
			C508.223,296.828,498.913,289.042,490.053,289.042z"/>
		<path style="fill:#006A6E;" d="M563.999,298.89v16.825c0,8.951-6.439,16.464-17.988,16.464c-9.846,0-18.351-6.351-18.351-16.914
			v-15.751c0-8.772-0.983-9.941-6.894-10.654c-0.172,0-0.357-1.163,0-1.069c2.779,0.443,6.985,0.443,10.829,0.443
			c2.775,0,7.25-0.179,9.31-0.443c0.359-0.093,0.27,1.069,0,1.069c-6.174,0.538-6.798,2.33-6.798,10.654v14.232
			c0,10.738,6.798,15.476,13.69,15.476c8.949,0,13.603-5.004,13.603-14.412v-15.924c0-7.968-0.895-9.314-6.796-10.027
			c-0.273,0-0.361-1.163,0-1.069c2.768,0.443,4.736,0.443,8.592,0.443c2.679,0,5.629-0.179,7.604-0.443
			c0.452-0.093,0.182,1.069,0.091,1.069C564.621,289.403,563.999,291.369,563.999,298.89z"/>
	</g>
</g>
</svg>
