<?xml version="1.0" encoding="iso-8859-1"?>
<!-- Generator: Adobe Illustrator 18.1.1, SVG Export Plug-In . SVG Version: 6.00 Build 0)  -->
<svg version="1.1" id="Layer_1" xmlns="http://www.w3.org/2000/svg" xmlns:xlink="http://www.w3.org/1999/xlink" x="0px" y="0px"
	 viewBox="0 0 60 60" style="enable-background:new 0 0 60 60;" xml:space="preserve">
<g>
	<path style="fill:#1AC0DE;" d="M13.379,40.37l-0.004-0.003L13.379,40.37z"/>
	<g>
		<path style="fill:#1AC0DE;" d="M33.469,36.894c-0.709,0.04-1.17,0.882-1.411,1.875c-0.07,0.245-0.13,1.299-1.029,2.592
			c-0.872,1.273-2.853,2.807-6.205,3.247c-1.64,0.228-3.573,0.135-5.487-0.32c-1.908-0.455-3.771-1.288-5.242-2.275
			c-2.996-2.001-4.21-4.228-4.233-4.166c0.036-0.062,1.094,2.232,4.184,4.489c1.512,1.112,3.512,2.102,5.642,2.671
			c2.124,0.588,4.35,0.751,6.293,0.556c3.967-0.39,6.526-2.119,7.662-3.587c1.178-1.495,1.262-2.729,1.299-3.016
			C35.01,37.746,34.141,36.849,33.469,36.894z"/>
		<path style="fill:#1AC0DE;" d="M15.674,42.608c1.429,0.771,3.15,1.335,4.734,1.499c2.23,0.269,4.025-0.206,5.036-0.806
			c1.144-0.633,1.547-1.37,1.675-1.646c0.044-0.093,0.077-0.186,0.1-0.278c0.158-0.654-0.133-1.221-0.489-1.333
			c-0.444-0.205-0.959,0.01-1.383,0.438c-0.023,0.014-0.048,0.036-0.078,0.066c-0.226,0.158-0.484,0.585-0.913,1.059
			c-0.059,0.059-0.119,0.13-0.185,0.211c-0.65,0.601-1.866,1.352-3.846,1.414c-0.366,0.013-0.743-0.015-1.144-0.053
			c-1.669-0.157-3.56-0.865-4.947-1.757c-0.129-0.083-0.255-0.165-0.378-0.247c-1.489-1.012-2.303-1.988-2.296-1.97
			c-0.004-0.021,0.78,1.092,2.417,2.329C14.471,41.901,15.039,42.278,15.674,42.608z"/>
		<path style="fill:#1AC0DE;" d="M15.25,41.302c0.338,0.095,0.681,0.153,0.995,0.147c0.676,0.022,1.082-0.238,1.327-0.509
			c0.244-0.273,0.328-0.559,0.314-0.637c0.033-0.3-0.211-0.681-0.459-0.785c-0.265-0.119-0.437,0.004-0.49,0.237
			c-0.006,0.104-0.054,1.076-1.056,1.247c-0.474,0.126-1.108-0.018-1.622-0.212c-0.486-0.171-0.833-0.397-0.879-0.419
			c0.044,0.027,0.399,0.306,0.929,0.558C14.592,41.067,14.908,41.211,15.25,41.302z"/>
		<g>
			<path style="fill:#1AC0DE;" d="M55.328,49.439c-0.37-0.026-0.605-0.469-0.724-0.989c-0.035-0.129-0.059-0.679-0.519-1.362
				c-0.447-0.671-1.47-1.486-3.218-1.74c-0.855-0.131-1.866-0.096-2.869,0.128c-1,0.224-1.979,0.646-2.754,1.152
				c-1.579,1.024-2.229,2.178-2.241,2.146c0.018,0.033,0.587-1.158,2.218-2.315c0.798-0.57,1.85-1.073,2.966-1.355
				c1.114-0.292,2.278-0.361,3.291-0.246c2.069,0.232,3.394,1.153,3.976,1.928c0.605,0.789,0.64,1.435,0.657,1.584
				C56.139,49.005,55.678,49.468,55.328,49.439z"/>
			<path style="fill:#1AC0DE;" d="M46.073,46.328c0.752-0.392,1.655-0.674,2.484-0.75c1.167-0.124,2.101,0.136,2.625,0.457
				c0.593,0.339,0.798,0.727,0.863,0.872c0.023,0.049,0.039,0.098,0.05,0.146c0.078,0.343-0.078,0.637-0.265,0.693
				c-0.234,0.104-0.501-0.012-0.719-0.239c-0.012-0.007-0.025-0.019-0.04-0.035c-0.117-0.084-0.248-0.309-0.469-0.56
				c-0.03-0.031-0.061-0.069-0.095-0.111c-0.335-0.318-0.965-0.72-1.999-0.766c-0.191-0.009-0.388,0.003-0.598,0.02
				c-0.873,0.07-1.866,0.426-2.596,0.883c-0.068,0.043-0.135,0.084-0.199,0.126c-0.785,0.518-1.217,1.022-1.213,1.013
				c-0.002,0.011,0.415-0.565,1.279-1.2C45.44,46.689,45.739,46.496,46.073,46.328z"/>
			<path style="fill:#1AC0DE;" d="M45.842,47.008c0.178-0.047,0.357-0.075,0.521-0.07c0.353-0.007,0.564,0.132,0.69,0.276
				c0.125,0.144,0.167,0.294,0.16,0.335c0.015,0.157-0.115,0.354-0.246,0.407c-0.139,0.06-0.228-0.005-0.254-0.128
				c-0.003-0.054-0.021-0.563-0.543-0.658c-0.247-0.069-0.579,0.001-0.849,0.099c-0.255,0.085-0.438,0.202-0.462,0.213
				c0.023-0.014,0.211-0.157,0.489-0.285C45.497,47.126,45.663,47.053,45.842,47.008z"/>
		</g>
		<g>
			<path style="fill:#1AC0DE;" d="M9.363,37.872c-1.569-2.733-2.251-5.93-2.06-9.066c0.174-3.184,1.273-6.513,3.31-9.468
				c2.031-2.957,4.959-5.535,8.441-7.37c3.469-1.845,7.476-2.952,11.447-3.184c4.66-0.296,9.261,0.553,13.083,2.271
				c-2.104-0.595-4.288-0.798-6.237-0.67c-2.927,0.195-5.198,1.111-6.611,2.053c-2.814,1.97-2.94,3.603-3.041,3.558
				c0.09,0.057,0.397-1.623,3.357-3.442c1.477-0.866,3.747-1.655,6.524-1.724c2.758-0.101,5.891,0.575,8.552,1.912
				c1.65,0.812,3.114,1.862,4.353,3.013c3.225,3.257,4.839,7.117,5.11,10.689c0.179,2.772-0.111,4.582-0.244,5.134
				c-0.082,0.339-0.259,1.139-0.363,1.45c-0.997,2.991-3.364,6.802-5.62,8.974c-2.447,2.357-3.412,2.739-4.442,3.354
				c-3.534,2.111-8.005,3.189-9.797,3.526c-3.985,0.751-4.698,0.593-4.723,0.753c-0.038,0.24,1.502,0.166,6.815-0.835
				c2.098-0.395,6.62-1.613,9.5-3.534c0.688-0.5,3.066-1.559,5.729-4.533c1.584-1.769,1.456-1.47,2.629-3.263
				c1.179-1.785,2.16-4.605,2.491-7.017c0.668-4.773-0.742-10.633-5.499-15.373c-2.336-2.354-5.457-4.382-9.128-5.704
				c-3.666-1.342-7.842-1.936-12.043-1.688c-4.202,0.257-8.429,1.422-12.072,3.374c-3.643,1.948-6.704,4.658-8.782,7.767
				c-2.109,3.097-3.189,6.581-3.317,9.882c-0.142,3.25,0.628,6.548,2.308,9.343c1.638,2.798,4.09,4.897,6.407,6.199
				c2.33,1.327,4.517,1.916,6.152,2.173c3.321,0.458,4.672-0.026,4.698,0.03c-0.021-0.056-1.446,0.395-4.77-0.145
				c-1.64-0.292-3.791-0.935-6.051-2.282C13.224,42.701,10.89,40.607,9.363,37.872z"/>
		</g>
	</g>
</g>
<path style="fill:#FFFFFF;" d="M10.109,39.356c0.481-0.713,0.09-1.818,0.09-1.818s-1.17,0.052-1.651,0.766
	c-0.481,0.713-0.09,1.818-0.09,1.818S9.628,40.069,10.109,39.356z"/>
<path style="fill:#006A6E;" d="M12.323,38.742c1.237-1.835,0.232-4.677,0.232-4.677s-3.011,0.134-4.249,1.969
	c-1.237,1.835-0.232,4.676-0.232,4.676S11.086,40.577,12.323,38.742z"/>
<path style="fill:#1AC0DE;" d="M11.34,38.933c0.912-1.353,0.171-3.447,0.171-3.447s-2.22,0.099-3.131,1.451
	c-0.912,1.353-0.171,3.447-0.171,3.447S10.428,40.286,11.34,38.933z"/>
<path style="fill:#63C9D5;" d="M10.39,39.398c0.63-0.934,0.118-2.381,0.118-2.381s-1.533,0.068-2.163,1.003
	C7.715,38.954,8.227,40.4,8.227,40.4S9.76,40.332,10.39,39.398z"/>
<path style="fill:#AED691;" d="M9.284,39.798c0.265-0.393,0.049-1.002,0.049-1.002s-0.645,0.029-0.91,0.422
	c-0.265,0.393-0.05,1.002-0.05,1.002S9.019,40.191,9.284,39.798z"/>
<path style="fill:#006A6E;" d="M3.461,39.367c-0.316-0.038-0.613,0.276-0.613,0.276s0.214,0.376,0.53,0.415
	c0.316,0.038,0.613-0.276,0.613-0.276S3.777,39.405,3.461,39.367z"/>
<path style="fill:#006A6E;" d="M9.606,50.893c0.038-0.316-0.277-0.613-0.277-0.613s-0.376,0.215-0.414,0.531
	s0.277,0.613,0.277,0.613S9.568,51.209,9.606,50.893z"/>
<path style="fill:#006A6E;" d="M7.417,49.587c-0.101-0.302-0.512-0.436-0.512-0.436s-0.248,0.354-0.148,0.656
	c0.101,0.302,0.512,0.436,0.512,0.436S7.518,49.889,7.417,49.587z"/>
<path style="fill:#006A6E;" d="M3.416,45.914c0.081-0.308-0.191-0.645-0.191-0.645s-0.402,0.161-0.483,0.469
	c-0.081,0.308,0.191,0.645,0.191,0.645S3.336,46.221,3.416,45.914z"/>
<path style="fill:#006A6E;" d="M17.998,49.892c0.24,0.209,0.663,0.115,0.663,0.115s0.034-0.432-0.206-0.641
	c-0.24-0.208-0.663-0.114-0.663-0.114S17.758,49.684,17.998,49.892z"/>
<path style="fill:#006A6E;" d="M16.206,46.428c0.178-0.264,0.033-0.672,0.033-0.672s-0.433,0.019-0.61,0.283
	c-0.178,0.263-0.033,0.672-0.033,0.672S16.028,46.691,16.206,46.428z"/>
<path style="fill:#006A6E;" d="M4.148,44.578c-0.779,1.08-0.229,2.809-0.229,2.809s1.814-0.023,2.593-1.103
	c0.779-1.08,0.229-2.809,0.229-2.809S4.928,43.497,4.148,44.578z"/>
<path style="fill:#1AC0DE;" d="M4.689,44.406c-0.59,0.818-0.173,2.127-0.173,2.127s1.373-0.017,1.963-0.835
	c0.59-0.818,0.173-2.126,0.173-2.126S5.279,43.589,4.689,44.406z"/>
<path style="fill:#AED691;" d="M5.711,44.091c-0.254,0.352-0.074,0.916-0.074,0.916s0.591-0.008,0.845-0.36
	c0.254-0.352,0.075-0.916,0.075-0.916S5.965,43.739,5.711,44.091z"/>
<path style="fill:#006A6E;" d="M2.764,43.699c-0.498,0.296-0.576,1.081-0.576,1.081s0.727,0.304,1.225,0.008
	c0.497-0.296,0.576-1.081,0.576-1.081S3.261,43.403,2.764,43.699z"/>
<path style="fill:#1AC0DE;" d="M3.009,43.724c-0.376,0.224-0.436,0.818-0.436,0.818s0.551,0.23,0.927,0.006
	c0.376-0.224,0.436-0.818,0.436-0.818S3.386,43.5,3.009,43.724z"/>
<path style="fill:#AED691;" d="M3.471,43.775c-0.162,0.097-0.188,0.352-0.188,0.352s0.237,0.099,0.399,0.003
	c0.162-0.097,0.188-0.352,0.188-0.352S3.634,43.678,3.471,43.775z"/>
<path style="fill:#006A6E;" d="M9.913,46.418c0.604,0.273,1.392-0.167,1.392-0.167s-0.191-0.881-0.795-1.155
	c-0.604-0.273-1.392,0.167-1.392,0.167S9.309,46.145,9.913,46.418z"/>
<path style="fill:#1AC0DE;" d="M9.776,46.172c0.457,0.206,1.054-0.126,1.054-0.126s-0.145-0.667-0.602-0.874
	c-0.457-0.207-1.054,0.126-1.054,0.126S9.319,45.965,9.776,46.172z"/>
<path style="fill:#AED691;" d="M9.521,45.705c0.197,0.089,0.454-0.054,0.454-0.054s-0.062-0.287-0.259-0.377
	c-0.197-0.089-0.454,0.054-0.454,0.054S9.324,45.616,9.521,45.705z"/>
<path style="fill:#006A6E;" d="M5.202,48.312c-0.013,0.663,0.702,1.214,0.702,1.214s0.736-0.523,0.748-1.185
	c0.013-0.663-0.702-1.214-0.702-1.214S5.215,47.65,5.202,48.312z"/>
<path style="fill:#1AC0DE;" d="M5.375,48.09c-0.01,0.501,0.531,0.919,0.531,0.919s0.556-0.396,0.566-0.897s-0.531-0.919-0.531-0.919
	S5.385,47.588,5.375,48.09z"/>
<path style="fill:#AED691;" d="M5.704,47.671c-0.004,0.216,0.229,0.395,0.229,0.395s0.24-0.17,0.244-0.386
	c0.004-0.216-0.229-0.396-0.229-0.396S5.708,47.455,5.704,47.671z"/>
<path style="fill:#006A6E;" d="M13.827,48.222c1.135-0.697,1.293-2.504,1.293-2.504s-1.683-0.677-2.818,0.02
	c-1.135,0.697-1.293,2.504-1.293,2.504S12.692,48.919,13.827,48.222z"/>
<path style="fill:#1AC0DE;" d="M13.262,48.172c0.859-0.528,0.978-1.896,0.978-1.896s-1.274-0.512-2.133,0.015
	c-0.859,0.528-0.978,1.895-0.978,1.895S12.403,48.7,13.262,48.172z"/>
<path style="fill:#AED691;" d="M12.198,48.07c0.37-0.227,0.422-0.816,0.422-0.816s-0.549-0.221-0.919,0.006
	c-0.37,0.227-0.422,0.816-0.422,0.816S11.828,48.297,12.198,48.07z"/>
<path style="fill:#006A6E;" d="M9.92,50.73c0.45,1,1.8,1.368,1.8,1.368s0.62-1.255,0.169-2.255c-0.451-1.001-1.8-1.368-1.8-1.368
	S9.47,49.73,9.92,50.73z"/>
<path style="fill:#1AC0DE;" d="M9.995,50.285c0.341,0.757,1.363,1.036,1.363,1.036s0.469-0.95,0.128-1.707
	c-0.341-0.757-1.363-1.036-1.363-1.036S9.654,49.528,9.995,50.285z"/>
<path style="fill:#AED691;" d="M10.141,49.448c0.147,0.326,0.587,0.446,0.587,0.446s0.202-0.409,0.055-0.735
	c-0.147-0.326-0.587-0.446-0.587-0.446S9.994,49.122,10.141,49.448z"/>
<path style="fill:#006A6E;" d="M13.018,51.09c0.721,0.673,2.043,0.43,2.043,0.43s0.152-1.335-0.569-2.009
	c-0.722-0.673-2.043-0.43-2.043-0.43S12.296,50.417,13.018,51.09z"/>
<path style="fill:#1AC0DE;" d="M12.942,50.677c0.546,0.51,1.546,0.325,1.546,0.325s0.115-1.01-0.431-1.52
	c-0.546-0.51-1.546-0.326-1.546-0.326S12.396,50.167,12.942,50.677z"/>
<path style="fill:#AED691;" d="M12.806,49.897c0.235,0.22,0.666,0.14,0.666,0.14s0.049-0.435-0.185-0.655
	c-0.236-0.22-0.666-0.14-0.666-0.14S12.57,49.677,12.806,49.897z"/>
<path style="fill:#006A6E;" d="M18.777,48.73c0.98-0.524,1.201-2.022,1.201-2.022s-1.369-0.647-2.349-0.123
	c-0.98,0.525-1.201,2.023-1.201,2.023S17.797,49.254,18.777,48.73z"/>
<path style="fill:#1AC0DE;" d="M18.309,48.66c0.742-0.397,0.909-1.531,0.909-1.531s-1.036-0.49-1.778-0.093
	c-0.742,0.397-0.909,1.531-0.909,1.531S17.567,49.058,18.309,48.66z"/>
<path style="fill:#AED691;" d="M17.427,48.522c0.32-0.171,0.391-0.659,0.391-0.659s-0.446-0.211-0.766-0.04
	c-0.32,0.171-0.392,0.659-0.392,0.659S17.108,48.694,17.427,48.522z"/>
<path style="fill:#006A6E;" d="M15.902,50.702c0.608,0.51,1.659,0.259,1.659,0.259s0.066-1.078-0.542-1.589
	c-0.608-0.51-1.658-0.259-1.658-0.259S15.294,50.192,15.902,50.702z"/>
<path style="fill:#1AC0DE;" d="M15.824,50.373c0.46,0.386,1.255,0.196,1.255,0.196s0.049-0.816-0.41-1.203
	c-0.46-0.386-1.256-0.196-1.256-0.196S15.364,49.987,15.824,50.373z"/>
<path style="fill:#AED691;" d="M15.681,49.753c0.198,0.166,0.541,0.084,0.541,0.084s0.021-0.352-0.177-0.518
	c-0.198-0.166-0.541-0.084-0.541-0.084S15.483,49.586,15.681,49.753z"/>
<path style="fill:#006A6E;" d="M15.831,48.417c0.397-0.463,0.213-1.273,0.213-1.273s-0.829-0.059-1.226,0.403
	c-0.397,0.463-0.213,1.273-0.213,1.273S15.433,48.88,15.831,48.417z"/>
<path style="fill:#1AC0DE;" d="M15.577,48.475c0.301-0.35,0.161-0.964,0.161-0.964s-0.627-0.045-0.928,0.305
	c-0.301,0.35-0.161,0.964-0.161,0.964S15.277,48.825,15.577,48.475z"/>
<path style="fill:#AED691;" d="M15.099,48.579c0.129-0.151,0.069-0.415,0.069-0.415s-0.27-0.02-0.4,0.131
	c-0.129,0.151-0.069,0.415-0.069,0.415S14.97,48.73,15.099,48.579z"/>
<path style="fill:#006A6E;" d="M6.912,47.983c0.259,1.419,1.904,2.307,1.904,2.307s1.223-1.413,0.964-2.832
	c-0.26-1.419-1.904-2.308-1.904-2.308S6.652,46.564,6.912,47.983z"/>
<path style="fill:#1AC0DE;" d="M7.156,47.437c0.196,1.074,1.441,1.747,1.441,1.747s0.926-1.069,0.73-2.143
	c-0.196-1.075-1.441-1.747-1.441-1.747S6.959,46.363,7.156,47.437z"/>
<path style="fill:#AED691;" d="M7.623,46.412c0.085,0.462,0.621,0.752,0.621,0.752s0.399-0.46,0.314-0.923
	c-0.084-0.463-0.621-0.752-0.621-0.752S7.539,45.949,7.623,46.412z"/>
<path style="fill:#006A6E;" d="M11.275,45.143c0.976,0.557,2.378-0.059,2.378-0.059s-0.182-1.52-1.158-2.078
	c-0.976-0.557-2.378,0.059-2.378,0.059S10.298,44.585,11.275,45.143z"/>
<path style="fill:#1AC0DE;" d="M11.083,44.704c0.739,0.422,1.8-0.045,1.8-0.045s-0.137-1.15-0.876-1.573
	c-0.739-0.422-1.8,0.045-1.8,0.045S10.344,44.282,11.083,44.704z"/>
<path style="fill:#AED691;" d="M10.727,43.875c0.318,0.182,0.775-0.019,0.775-0.019s-0.059-0.496-0.377-0.677
	c-0.318-0.182-0.775,0.019-0.775,0.019S10.408,43.693,10.727,43.875z"/>
<path style="fill:#006A6E;" d="M10.67,42.484c0.919,0.14,1.816-0.752,1.816-0.752s-0.591-1.119-1.51-1.259
	c-0.919-0.14-1.816,0.752-1.816,0.752S9.751,42.344,10.67,42.484z"/>
<path style="fill:#1AC0DE;" d="M10.391,42.203c0.695,0.106,1.375-0.569,1.375-0.569s-0.448-0.847-1.143-0.953
	c-0.695-0.106-1.375,0.569-1.375,0.569S9.696,42.097,10.391,42.203z"/>
<path style="fill:#AED691;" d="M9.87,41.669c0.3,0.045,0.592-0.245,0.592-0.245s-0.193-0.365-0.492-0.411
	c-0.3-0.045-0.592,0.245-0.592,0.245S9.571,41.623,9.87,41.669z"/>
<path style="fill:#006A6E;" d="M4.714,38.066c-0.552-0.377-1.412-0.078-1.412-0.078s0.035,0.91,0.587,1.287
	c0.552,0.377,1.412,0.078,1.412,0.078S5.266,38.442,4.714,38.066z"/>
<path style="fill:#1AC0DE;" d="M4.807,38.334c-0.418-0.285-1.069-0.059-1.069-0.059s0.026,0.689,0.445,0.974
	c0.418,0.285,1.069,0.059,1.069,0.059S5.225,38.62,4.807,38.334z"/>
<path style="fill:#AED691;" d="M4.979,38.843c-0.18-0.123-0.461-0.025-0.461-0.025s0.012,0.297,0.192,0.419
	c0.18,0.123,0.461,0.026,0.461,0.026S5.159,38.966,4.979,38.843z"/>
<path style="fill:#006A6E;" d="M7.19,38.348c-0.462-0.632-1.528-0.638-1.528-0.638s-0.317,1.018,0.145,1.649
	c0.462,0.632,1.528,0.638,1.528,0.638S7.652,38.98,7.19,38.348z"/>
<path style="fill:#1AC0DE;" d="M7.187,38.681c-0.35-0.478-1.157-0.483-1.157-0.483s-0.24,0.77,0.11,1.248
	c0.35,0.478,1.157,0.483,1.157,0.483S7.537,39.159,7.187,38.681z"/>
<path style="fill:#AED691;" d="M7.178,39.309c-0.151-0.206-0.498-0.208-0.498-0.208s-0.103,0.332,0.047,0.538
	c0.151,0.206,0.498,0.208,0.498,0.208S7.328,39.515,7.178,39.309z"/>
<path style="fill:#006A6E;" d="M7.136,43.347c0.162,1.142,1.542,1.89,1.542,1.89s1.118-1.102,0.956-2.244
	c-0.162-1.141-1.542-1.89-1.542-1.89S6.975,42.206,7.136,43.347z"/>
<path style="fill:#1AC0DE;" d="M7.371,42.984c0.122,0.864,1.167,1.43,1.167,1.43s0.846-0.834,0.724-1.698
	c-0.122-0.864-1.167-1.43-1.167-1.43S7.248,42.12,7.371,42.984z"/>
<path style="fill:#AED691;" d="M7.834,42.284c0.053,0.372,0.503,0.616,0.503,0.616s0.364-0.36,0.312-0.732
	c-0.053-0.372-0.503-0.616-0.503-0.616S7.782,41.911,7.834,42.284z"/>
<path style="fill:#006A6E;" d="M4.284,40.012c-1.527,0.575-2.135,2.712-2.135,2.712s1.867,1.204,3.394,0.629
	c1.527-0.576,2.135-2.712,2.135-2.712S5.811,39.436,4.284,40.012z"/>
<g>
	<path style="fill:#06B4DF;" d="M4.952,40.203c-1.156,0.435-1.616,2.053-1.616,2.053s1.413,0.912,2.569,0.476
		c1.156-0.435,1.616-2.053,1.616-2.053S6.107,39.768,4.952,40.203z"/>
</g>
<path style="fill:#AED691;" d="M6.208,40.573c-0.498,0.187-0.696,0.884-0.696,0.884s0.609,0.392,1.106,0.205
	c0.498-0.188,0.696-0.884,0.696-0.884S6.706,40.385,6.208,40.573z"/>
<path style="fill:#006A6E;" d="M12.581,34.609c0.542-1.553,1.187-4.112-0.278-4.71c-0.097-0.049-0.204-0.086-0.322-0.108
	c-0.105-0.029-0.214-0.009-0.333-0.03l0.013,0.008c-0.68,0.03-1.223,0.591-1.223,1.279c0,0.365,0.153,0.695,0.398,0.928
	l-0.842,1.736l1.332-1.439l-0.018-0.012c0.129,0.043,0.267,0.067,0.411,0.067c0.238,0,0.438-0.061,0.63-0.147
	c0.266-0.12,0.274,0.102,0.274,0.176c0,0.046-0.007,0.024-0.009,0.12c-0.002,0.085-0.034,0.261-0.052,0.344
	c-0.124,0.559-0.525,1.14-0.755,1.37l0.799,0.426"/>
<line style="fill:#027997;" x1="11.763" y1="29.906" x2="11.006" y2="27.626"/>
<line style="fill:#027997;" x1="11.828" y1="29.925" x2="11.842" y2="28.301"/>
<line style="fill:#027997;" x1="11.661" y1="29.888" x2="10.787" y2="28.909"/>
<line style="fill:#027997;" x1="11.957" y1="29.888" x2="12.655" y2="28.744"/>
<line style="fill:#027997;" x1="11.587" y1="29.879" x2="10.548" y2="29.421"/>
<circle style="fill:#FAFAF8;" cx="10.988" cy="31.4" r="0.207"/>
<circle style="fill:#AED691;" cx="10.988" cy="31.4" r="0.207"/>
<circle style="fill:#006A6E;" cx="10.506" cy="29.402" r="0.125"/>
<g>
	<path style="fill:#006A6E;" d="M12.646,28.618c-0.069,0-0.125,0.056-0.125,0.126c0,0.03,0.012,0.057,0.03,0.079l-0.635,1.041
		l0.082,0.05l0.638-1.046c0.003,0,0.006,0.002,0.01,0.002c0.069,0,0.126-0.056,0.126-0.125
		C12.772,28.674,12.715,28.618,12.646,28.618z M11.975,28.267c0-0.069-0.056-0.125-0.126-0.125c-0.069,0-0.125,0.056-0.125,0.125
		c0,0.049,0.029,0.09,0.069,0.111l-0.012,1.429l-0.696-2.097c0.03-0.028,0.048-0.067,0.048-0.111c0-0.085-0.069-0.154-0.154-0.154
		c-0.085,0-0.154,0.069-0.154,0.154c0,0.085,0.069,0.154,0.154,0.154c0.006,0,0.012-0.001,0.018-0.002l0.697,2.102l-0.813-0.91
		c0.009-0.018,0.016-0.037,0.016-0.058c0-0.069-0.056-0.125-0.126-0.125c-0.069,0-0.125,0.056-0.125,0.125
		c0,0.069,0.056,0.125,0.125,0.125c0.012,0,0.024-0.004,0.035-0.007l0.705,0.789l-0.944-0.416l-0.039,0.088l1.039,0.457l0.02-0.045
		l0.038,0.042l0.071-0.063l0.021,0.065l0.062-0.021l0,0.024l0.096,0.001l0.014-1.541C11.939,28.368,11.975,28.322,11.975,28.267z"/>
</g>
<g>
	<g>
		<path style="fill:#006A6E;" d="M15.064,22.236c-0.092-0.459-0.064-0.615-1.111-0.615h-0.689c-0.027,0.165-0.046,0.422-0.046,0.872
			v0.909h0.431c0.753,0,0.826-0.119,0.908-0.45c0-0.009,0.11-0.027,0.11,0c-0.036,0.119-0.055,0.44-0.055,0.633
			c0,0.092,0,0.385,0.018,0.45c0.009,0.037-0.11,0.037-0.11,0c-0.055-0.285-0.128-0.422-0.872-0.422h-0.431v0.991
			c0,0.9,0.073,1.028,0.734,1.083c0.018,0,0.037,0.11,0,0.11c-0.211-0.027-0.707-0.046-0.991-0.046
			c-0.386,0-0.762,0.009-1.046,0.046c-0.036,0-0.018-0.11,0-0.11c0.532-0.064,0.643-0.202,0.643-1.083v-2.074
			c0-0.9-0.073-1.01-0.771-1.083c-0.009-0.009-0.028-0.119,0.009-0.119c0.496,0.046,1.303,0.055,1.983,0.055
			c0.486,0,0.918-0.028,1.165-0.028c0.101,0,0.138,0.009,0.165,0.119c0.028,0.156,0.037,0.578,0.064,0.762
			C15.183,22.254,15.073,22.254,15.064,22.236z"/>
		<path style="fill:#006A6E;" d="M18.332,25.889c-1.349,0-2.386-1.065-2.386-2.249c0-1.239,1.065-2.396,2.506-2.396
			c1.358,0,2.386,1.074,2.386,2.258C20.837,24.732,19.782,25.889,18.332,25.889z M18.304,21.465c-0.973,0-1.68,0.624-1.68,1.882
			c0,1.533,0.954,2.322,1.863,2.322c0.973,0,1.68-0.624,1.68-1.872C20.168,22.263,19.213,21.465,18.304,21.465z"/>
		<path style="fill:#006A6E;" d="M25.887,22.474V24.2c0,0.918-0.661,1.689-1.845,1.689c-1.01,0-1.882-0.652-1.882-1.735v-1.615
			c0-0.9-0.101-1.019-0.706-1.092c-0.018,0-0.037-0.119,0-0.11c0.285,0.046,0.716,0.046,1.11,0.046c0.285,0,0.744-0.018,0.954-0.046
			c0.037-0.009,0.028,0.11,0,0.11c-0.633,0.055-0.697,0.239-0.697,1.092v1.459c0,1.102,0.697,1.588,1.404,1.588
			c0.918,0,1.395-0.514,1.395-1.478v-1.634c0-0.816-0.092-0.954-0.698-1.028c-0.028,0-0.037-0.119,0-0.11
			c0.285,0.046,0.487,0.046,0.881,0.046c0.275,0,0.578-0.018,0.78-0.046c0.046-0.009,0.018,0.11,0.009,0.11
			C25.952,21.501,25.887,21.703,25.887,22.474z"/>
		<path style="fill:#006A6E;" d="M31.817,22.529v2.074c0,0.34,0.018,0.964,0.055,1.257c0,0.018-0.082,0.018-0.119-0.009
			l-3.377-3.534v2.285c0,0.762,0.073,1.028,0.716,1.083c0.009,0,0.027,0.11-0.009,0.11c-0.211-0.027-0.459-0.046-0.734-0.046
			c-0.395,0-0.679,0.009-0.964,0.046c-0.028,0-0.018-0.11,0-0.11c0.615-0.064,0.706-0.276,0.706-1.083v-2.359
			c0-0.321-0.569-0.762-0.89-0.798c-0.019-0.009-0.037-0.119,0-0.119c0.284,0.046,0.789,0.055,1.175,0.055l3.148,3.359v-2.212
			c0-0.817-0.092-1.019-0.698-1.083c-0.027-0.009-0.036-0.119,0-0.119c0.275,0.046,0.496,0.055,0.891,0.055
			c0.284,0,0.597-0.028,0.798-0.055c0.046,0,0.019,0.11,0.01,0.119C31.882,21.492,31.817,21.768,31.817,22.529z"/>
		<path style="fill:#006A6E;" d="M37.37,21.777c0,0.11,0.01,0.339,0.019,0.431c0,0.018-0.111,0.009-0.111,0
			c-0.055-0.312-0.293-0.541-1.028-0.541h-0.624v2.937c0,0.844,0.065,1.028,0.707,1.083c0.018,0,0.028,0.11-0.009,0.11
			c-0.211-0.027-0.67-0.046-0.955-0.046c-0.385,0-0.825,0.009-1.101,0.046c-0.046,0-0.027-0.11-0.009-0.11
			c0.615-0.064,0.707-0.193,0.707-1.083v-2.937h-0.652c-0.707,0-0.982,0.211-1.065,0.541c0,0.009-0.11,0.018-0.11,0
			c0.028-0.147,0.046-0.505,0.046-0.698c0-0.073,0-0.202-0.037-0.358c-0.009-0.018,0.11-0.018,0.11,0
			c0.045,0.23,0.055,0.257,1.055,0.257h1.936c0.992,0,1.019-0.018,1.074-0.257c0-0.018,0.111-0.018,0.111,0
			C37.398,21.299,37.37,21.547,37.37,21.777z"/>
		<path style="fill:#006A6E;" d="M41.4,25.751c-0.386,0-0.863,0.009-1.148,0.046c-0.036,0-0.017-0.11,0-0.11
			c0.331-0.037,0.515-0.019,0.515-0.211c0-0.211-0.101-0.532-0.23-0.872l-0.175-0.505h-1.477l-0.211,0.505
			c-0.175,0.404-0.276,0.679-0.276,0.863c0,0.165,0.175,0.193,0.487,0.22c0.027,0,0.037,0.11,0,0.11
			c-0.202-0.027-0.487-0.046-0.772-0.046c-0.386,0-0.45,0.009-0.743,0.046c-0.036,0-0.018-0.11,0-0.11
			c0.459-0.037,0.698-0.303,1.046-1.083l1.478-3.332c0.009-0.028,0.064-0.028,0.073,0l1.276,3.332
			c0.257,0.688,0.395,1.028,1.055,1.083c0.018,0,0.037,0.11,0,0.11C42.088,25.769,41.694,25.751,41.4,25.751z M39.693,22.236
			l-0.725,1.652h1.321L39.693,22.236z"/>
		<path style="fill:#006A6E;" d="M44.944,25.797c-0.202-0.027-0.67-0.046-0.945-0.046c-0.395,0-0.826,0.009-1.111,0.046
			c-0.046,0-0.019-0.11-0.009-0.11c0.615-0.064,0.707-0.193,0.707-1.083v-2.074c0-0.9-0.092-1.019-0.707-1.083
			c-0.01-0.009-0.037-0.119,0.009-0.119c0.284,0.046,0.716,0.055,1.111,0.055c0.275,0,0.743-0.028,0.945-0.055
			c0.046,0,0.019,0.11,0.009,0.119c-0.643,0.046-0.707,0.239-0.707,1.083v2.074c0,0.844,0.064,1.028,0.707,1.083
			C44.962,25.687,44.99,25.797,44.944,25.797z"/>
		<path style="fill:#006A6E;" d="M50.497,22.529v2.074c0,0.34,0.019,0.964,0.055,1.257c0,0.018-0.082,0.018-0.119-0.009
			l-3.377-3.534v2.285c0,0.762,0.073,1.028,0.716,1.083c0.009,0,0.027,0.11-0.008,0.11c-0.212-0.027-0.46-0.046-0.735-0.046
			c-0.395,0-0.678,0.009-0.964,0.046c-0.028,0-0.018-0.11,0-0.11c0.615-0.064,0.707-0.276,0.707-1.083v-2.359
			c0-0.321-0.569-0.762-0.89-0.798c-0.019-0.009-0.037-0.119,0-0.119c0.284,0.046,0.789,0.055,1.174,0.055l3.148,3.359v-2.212
			c0-0.817-0.091-1.019-0.697-1.083c-0.029-0.009-0.037-0.119,0-0.119c0.274,0.046,0.495,0.055,0.889,0.055
			c0.285,0,0.597-0.028,0.799-0.055c0.046,0,0.019,0.11,0.009,0.119C50.561,21.492,50.497,21.768,50.497,22.529z"/>
		<path style="fill:#006A6E;" d="M21.159,32.169c-1.349,0-2.386-1.064-2.386-2.248c0-1.239,1.065-2.396,2.505-2.396
			c1.359,0,2.387,1.074,2.387,2.258C23.665,31.013,22.609,32.169,21.159,32.169z M21.132,27.745c-0.973,0-1.68,0.624-1.68,1.881
			c0,1.533,0.954,2.323,1.863,2.323c0.973,0,1.68-0.625,1.68-1.873C22.995,28.544,22.04,27.745,21.132,27.745z"/>
		<path style="fill:#006A6E;" d="M27.686,28.516c-0.092-0.458-0.064-0.615-1.111-0.615h-0.688c-0.028,0.165-0.046,0.423-0.046,0.872
			v0.909h0.431c0.752,0,0.826-0.119,0.909-0.449c0-0.009,0.11-0.028,0.11,0c-0.036,0.119-0.055,0.44-0.055,0.633
			c0,0.092,0,0.385,0.018,0.45c0.009,0.036-0.11,0.036-0.11,0c-0.055-0.284-0.129-0.423-0.872-0.423h-0.431v0.992
			c0,0.9,0.073,1.028,0.734,1.083c0.018,0,0.037,0.11,0,0.11c-0.211-0.027-0.707-0.046-0.991-0.046c-0.385,0-0.762,0.01-1.047,0.046
			c-0.037,0-0.018-0.11,0-0.11c0.533-0.064,0.643-0.202,0.643-1.083V28.81c0-0.9-0.073-1.01-0.771-1.083
			c-0.009-0.009-0.028-0.119,0.009-0.119c0.496,0.046,1.303,0.055,1.982,0.055c0.486,0,0.918-0.028,1.166-0.028
			c0.101,0,0.138,0.009,0.165,0.12c0.028,0.156,0.037,0.578,0.064,0.761C27.805,28.535,27.695,28.535,27.686,28.516z"/>
		<path style="fill:#006A6E;" d="M35.295,27.8c-0.111-0.027-0.193-0.036-0.313-0.036c-1.101,0-1.917,1.385-1.917,2.946v0.174
			c0,0.854,0.063,1.028,0.706,1.083c0.019,0,0.037,0.119,0,0.11c-0.211-0.027-0.679-0.046-0.954-0.046
			c-0.395,0-0.826,0.01-1.111,0.046c-0.046,0.009-0.018-0.11-0.009-0.11c0.615-0.064,0.707-0.193,0.707-1.083V30.71
			c0-1.698-0.909-2.937-1.955-2.937c-0.092,0-0.165,0.009-0.248,0.027c-0.009,0-0.037-0.11,0-0.11
			c0.22-0.083,0.449-0.128,0.661-0.128c1,0,1.826,0.817,2.074,1.881c0.395-1.183,1.111-1.835,1.918-1.835
			c0.147,0,0.303,0.027,0.45,0.083C35.34,27.69,35.314,27.8,35.295,27.8z"/>
		<path style="fill:#006A6E;" d="M37.893,32.169c-1.349,0-2.386-1.064-2.386-2.248c0-1.239,1.065-2.396,2.505-2.396
			c1.358,0,2.387,1.074,2.387,2.258C40.399,31.013,39.343,32.169,37.893,32.169z M37.865,27.745c-0.973,0-1.68,0.624-1.68,1.881
			c0,1.533,0.955,2.323,1.864,2.323c0.973,0,1.679-0.625,1.679-1.873C39.729,28.544,38.774,27.745,37.865,27.745z"/>
		<path style="fill:#006A6E;" d="M45.448,28.755v1.725c0,0.918-0.66,1.688-1.845,1.688c-1.01,0-1.882-0.651-1.882-1.734V28.82
			c0-0.899-0.101-1.019-0.707-1.092c-0.018,0-0.037-0.119,0-0.11c0.285,0.046,0.716,0.046,1.111,0.046
			c0.285,0,0.744-0.018,0.955-0.046c0.037-0.009,0.028,0.11,0,0.11c-0.633,0.055-0.697,0.239-0.697,1.092v1.46
			c0,1.101,0.697,1.587,1.404,1.587c0.918,0,1.395-0.513,1.395-1.478v-1.633c0-0.817-0.092-0.955-0.697-1.028
			c-0.028,0-0.037-0.119,0-0.11c0.284,0.046,0.486,0.046,0.881,0.046c0.275,0,0.577-0.018,0.78-0.046
			c0.046-0.009,0.019,0.11,0.009,0.11C45.512,27.782,45.448,27.984,45.448,28.755z"/>
	</g>
</g>
</svg>
